<svg xmlns="http://www.w3.org/2000/svg" width="1500" height="960" viewBox="0 0 1500 960" role="img">
<style>text{font-family:Inter,Arial,Helvetica,sans-serif} .mono{font-family:"DejaVu Sans Mono",Consolas,monospace}</style>
<title>MMMMVV Explorer scene: Interior obstruction</title><desc>Prepared canonical MMMMVV k=4 scene for pivots (2,3); theorem status and any exact state or obstruction witness come from Python exports.</desc>
<rect width="1500" height="960" fill="#F4F6F8"/>
<text x="48" y="48" font-size="29" fill="#17212B" font-weight="650" text-anchor="start" dominant-baseline="middle">Map &amp; Layer-Order Explorer · MMMMVV prepared scene</text>
<text x="48" y="80" font-size="13" fill="#66727F" font-weight="450" text-anchor="start" dominant-baseline="middle">k=4 · canonical MMMMVV · Interior obstruction · (a,b)=(2,3)</text>
<rect x="1112" y="34" width="158" height="28" rx="14" fill="#FCEFF1" stroke="#B23A48" stroke-width="1"/>
<text x="1191" y="48" font-size="10.5" fill="#B23A48" font-weight="650" text-anchor="middle" dominant-baseline="middle">× INCOMPATIBLE</text>
<rect x="1280" y="34" width="172" height="28" rx="14" fill="#FFF5DF" stroke="#A56600" stroke-width="1" stroke-dasharray="5 3"/>
<text x="1366" y="48" font-size="10" fill="#7A4A00" font-weight="650" text-anchor="middle" dominant-baseline="middle">◇ NOT PHYSICAL MOTION</text>
<rect x="40" y="112" width="900" height="310" rx="8" fill="#FFFFFF" stroke="#D9E0E6" stroke-width="1"/>
<rect x="56" y="126" width="26" height="26" rx="5" fill="#fff" stroke="#D9E0E6" stroke-width="1"/>
<text x="69" y="139" font-size="11" fill="#66727F" font-weight="650" text-anchor="middle" dominant-baseline="middle">A</text>
<text x="94" y="139" font-size="12" fill="#17212B" font-weight="650" text-anchor="start" dominant-baseline="middle" letter-spacing="0.8">MAP / CREASE PATTERN</text>
<text x="922" y="139" font-size="11" fill="#66727F" font-weight="450" text-anchor="end" dominant-baseline="middle">physical 2×8 geometry</text>
<line x1="56" y1="160" x2="924" y2="160" stroke="#D9E0E6" stroke-width="1"/>
<rect x="92" y="176" width="72" height="52" rx="2" fill="#EEF7FC" stroke="#D9E0E6" stroke-width="1"/>
<text x="128.0" y="202.0" font-size="11.5" fill="#17212B" font-weight="650" text-anchor="middle" dominant-baseline="middle" class="mono">A1</text>
<rect x="164" y="176" width="72" height="52" rx="2" fill="#EEF7FC" stroke="#D9E0E6" stroke-width="1"/>
<text x="200.0" y="202.0" font-size="11.5" fill="#17212B" font-weight="650" text-anchor="middle" dominant-baseline="middle" class="mono">A2</text>
<rect x="236" y="176" width="72" height="52" rx="2" fill="#EEF7FC" stroke="#D9E0E6" stroke-width="1"/>
<text x="272.0" y="202.0" font-size="11.5" fill="#17212B" font-weight="650" text-anchor="middle" dominant-baseline="middle" class="mono">A3</text>
<rect x="308" y="176" width="72" height="52" rx="2" fill="#EEF7FC" stroke="#D9E0E6" stroke-width="1"/>
<text x="344.0" y="202.0" font-size="11.5" fill="#17212B" font-weight="650" text-anchor="middle" dominant-baseline="middle" class="mono">A4</text>
<rect x="380" y="176" width="72" height="52" rx="2" fill="#EEF7FC" stroke="#D9E0E6" stroke-width="1"/>
<text x="416.0" y="202.0" font-size="11.5" fill="#17212B" font-weight="650" text-anchor="middle" dominant-baseline="middle" class="mono">A5</text>
<rect x="452" y="176" width="72" height="52" rx="2" fill="#EEF7FC" stroke="#D9E0E6" stroke-width="1"/>
<text x="488.0" y="202.0" font-size="11.5" fill="#17212B" font-weight="650" text-anchor="middle" dominant-baseline="middle" class="mono">A6</text>
<rect x="524" y="176" width="72" height="52" rx="2" fill="#EEF7FC" stroke="#D9E0E6" stroke-width="1"/>
<text x="560.0" y="202.0" font-size="11.5" fill="#17212B" font-weight="650" text-anchor="middle" dominant-baseline="middle" class="mono">A7</text>
<rect x="596" y="176" width="72" height="52" rx="2" fill="#EEF7FC" stroke="#D9E0E6" stroke-width="1"/>
<text x="632.0" y="202.0" font-size="11.5" fill="#17212B" font-weight="650" text-anchor="middle" dominant-baseline="middle" class="mono">A8</text>
<rect x="92" y="228" width="72" height="52" rx="2" fill="#FFF4ED" stroke="#D9E0E6" stroke-width="1"/>
<text x="128.0" y="254.0" font-size="11.5" fill="#17212B" font-weight="650" text-anchor="middle" dominant-baseline="middle" class="mono">B1</text>
<rect x="164" y="228" width="72" height="52" rx="2" fill="#FFF4ED" stroke="#D9E0E6" stroke-width="1"/>
<text x="200.0" y="254.0" font-size="11.5" fill="#17212B" font-weight="650" text-anchor="middle" dominant-baseline="middle" class="mono">B2</text>
<rect x="236" y="228" width="72" height="52" rx="2" fill="#FFF4ED" stroke="#D9E0E6" stroke-width="1"/>
<text x="272.0" y="254.0" font-size="11.5" fill="#17212B" font-weight="650" text-anchor="middle" dominant-baseline="middle" class="mono">B3</text>
<rect x="308" y="228" width="72" height="52" rx="2" fill="#FFF4ED" stroke="#D9E0E6" stroke-width="1"/>
<text x="344.0" y="254.0" font-size="11.5" fill="#17212B" font-weight="650" text-anchor="middle" dominant-baseline="middle" class="mono">B4</text>
<rect x="380" y="228" width="72" height="52" rx="2" fill="#FFF4ED" stroke="#D9E0E6" stroke-width="1"/>
<text x="416.0" y="254.0" font-size="11.5" fill="#17212B" font-weight="650" text-anchor="middle" dominant-baseline="middle" class="mono">B5</text>
<rect x="452" y="228" width="72" height="52" rx="2" fill="#FFF4ED" stroke="#D9E0E6" stroke-width="1"/>
<text x="488.0" y="254.0" font-size="11.5" fill="#17212B" font-weight="650" text-anchor="middle" dominant-baseline="middle" class="mono">B6</text>
<rect x="524" y="228" width="72" height="52" rx="2" fill="#FFF4ED" stroke="#D9E0E6" stroke-width="1"/>
<text x="560.0" y="254.0" font-size="11.5" fill="#17212B" font-weight="650" text-anchor="middle" dominant-baseline="middle" class="mono">B7</text>
<rect x="596" y="228" width="72" height="52" rx="2" fill="#FFF4ED" stroke="#D9E0E6" stroke-width="1"/>
<text x="632.0" y="254.0" font-size="11.5" fill="#17212B" font-weight="650" text-anchor="middle" dominant-baseline="middle" class="mono">B8</text>
<line x1="92" y1="228" x2="164" y2="228" stroke="#17212B" stroke-width="1.8"/>
<text x="128.0" y="239" font-size="7.8" fill="#66727F" font-weight="600" text-anchor="middle" dominant-baseline="middle" class="mono">H1:M</text>
<line x1="164" y1="228" x2="236" y2="228" stroke="#17212B" stroke-width="1.8"/>
<text x="200.0" y="239" font-size="7.8" fill="#66727F" font-weight="600" text-anchor="middle" dominant-baseline="middle" class="mono">H2:M</text>
<line x1="236" y1="228" x2="308" y2="228" stroke="#17212B" stroke-width="1.8"/>
<text x="272.0" y="239" font-size="7.8" fill="#66727F" font-weight="600" text-anchor="middle" dominant-baseline="middle" class="mono">H3:M</text>
<line x1="308" y1="228" x2="380" y2="228" stroke="#17212B" stroke-width="1.8"/>
<text x="344.0" y="239" font-size="7.8" fill="#66727F" font-weight="600" text-anchor="middle" dominant-baseline="middle" class="mono">H4:M</text>
<line x1="380" y1="228" x2="452" y2="228" stroke="#17212B" stroke-width="1.8"/>
<text x="416.0" y="239" font-size="7.8" fill="#66727F" font-weight="600" text-anchor="middle" dominant-baseline="middle" class="mono">H5:M</text>
<line x1="452" y1="228" x2="524" y2="228" stroke="#17212B" stroke-width="1.8"/>
<text x="488.0" y="239" font-size="7.8" fill="#66727F" font-weight="600" text-anchor="middle" dominant-baseline="middle" class="mono">H6:M</text>
<line x1="524" y1="228" x2="596" y2="228" stroke="#17212B" stroke-width="1.8"/>
<text x="560.0" y="239" font-size="7.8" fill="#66727F" font-weight="600" text-anchor="middle" dominant-baseline="middle" class="mono">H7:M</text>
<line x1="596" y1="228" x2="668" y2="228" stroke="#17212B" stroke-width="1.8"/>
<text x="632.0" y="239" font-size="7.8" fill="#66727F" font-weight="600" text-anchor="middle" dominant-baseline="middle" class="mono">H8:M</text>
<line x1="164" y1="176" x2="164" y2="228" stroke="#17212B" stroke-width="1.8"/>
<line x1="236" y1="176" x2="236" y2="228" stroke="#6F42C1" stroke-width="4"/>
<text x="224" y="202.0" font-size="8.5" fill="#6F42C1" font-weight="650" text-anchor="middle" dominant-baseline="middle" class="mono">U2:M</text>
<line x1="308" y1="176" x2="308" y2="228" stroke="#17212B" stroke-width="1.8"/>
<line x1="380" y1="176" x2="380" y2="228" stroke="#17212B" stroke-width="1.8"/>
<line x1="452" y1="176" x2="452" y2="228" stroke="#17212B" stroke-width="1.8"/>
<line x1="524" y1="176" x2="524" y2="228" stroke="#17212B" stroke-width="1.8"/>
<line x1="596" y1="176" x2="596" y2="228" stroke="#17212B" stroke-width="1.8"/>
<line x1="164" y1="228" x2="164" y2="280" stroke="#17212B" stroke-width="1.8" stroke-dasharray="6 4"/>
<line x1="236" y1="228" x2="236" y2="280" stroke="#17212B" stroke-width="1.8" stroke-dasharray="6 4"/>
<line x1="308" y1="228" x2="308" y2="280" stroke="#6F42C1" stroke-width="4" stroke-dasharray="6 4"/>
<text x="320" y="254.0" font-size="8.5" fill="#6F42C1" font-weight="650" text-anchor="middle" dominant-baseline="middle" class="mono">L3:V</text>
<line x1="380" y1="228" x2="380" y2="280" stroke="#17212B" stroke-width="1.8" stroke-dasharray="6 4"/>
<line x1="452" y1="228" x2="452" y2="280" stroke="#17212B" stroke-width="1.8" stroke-dasharray="6 4"/>
<line x1="524" y1="228" x2="524" y2="280" stroke="#17212B" stroke-width="1.8" stroke-dasharray="6 4"/>
<line x1="596" y1="228" x2="596" y2="280" stroke="#17212B" stroke-width="1.8" stroke-dasharray="6 4"/>
<text x="92" y="306" font-size="10.5" fill="#6F42C1" font-weight="650" text-anchor="start" dominant-baseline="middle">upper pivot U2 · lower pivot L3</text>
<rect x="40" y="442" width="900" height="350" rx="8" fill="#FFFFFF" stroke="#D9E0E6" stroke-width="1"/>
<rect x="56" y="456" width="26" height="26" rx="5" fill="#fff" stroke="#D9E0E6" stroke-width="1"/>
<text x="69" y="469" font-size="11" fill="#66727F" font-weight="650" text-anchor="middle" dominant-baseline="middle">B</text>
<text x="94" y="469" font-size="12" fill="#17212B" font-weight="650" text-anchor="start" dominant-baseline="middle" letter-spacing="0.8">ROW NORMAL FORMS</text>
<text x="922" y="469" font-size="11" fill="#66727F" font-weight="450" text-anchor="end" dominant-baseline="middle">physical ↔ layer order</text>
<line x1="56" y1="490" x2="924" y2="490" stroke="#D9E0E6" stroke-width="1"/>
<text x="72" y="502" font-size="11" fill="#17212B" font-weight="650" text-anchor="start" dominant-baseline="middle">Upper A row · R⁺ · p=2</text>
<text x="72" y="526" font-size="8.2" fill="#66727F" font-weight="650" text-anchor="start" dominant-baseline="middle" letter-spacing="0.6">PHYSICAL</text>
<rect x="148" y="513" width="48" height="24" rx="5" fill="#EEF7FC" stroke="#D9E0E6" stroke-width="1"/>
<rect x="148" y="513" width="4" height="24" rx="4" fill="#0072B2" stroke="none" stroke-width="0"/>
<text x="172.0" y="525.0" font-size="10" fill="#17212B" font-weight="650" text-anchor="middle" dominant-baseline="middle" class="mono">A1</text>
<rect x="203" y="513" width="48" height="24" rx="5" fill="#EEF7FC" stroke="#D9E0E6" stroke-width="1"/>
<rect x="203" y="513" width="4" height="24" rx="4" fill="#0072B2" stroke="none" stroke-width="0"/>
<text x="227.0" y="525.0" font-size="10" fill="#17212B" font-weight="650" text-anchor="middle" dominant-baseline="middle" class="mono">A2</text>
<line x1="254" y1="510" x2="254" y2="542" stroke="#6F42C1" stroke-width="3"/>
<rect x="258" y="513" width="48" height="24" rx="5" fill="#EEF7FC" stroke="#D9E0E6" stroke-width="1"/>
<rect x="258" y="513" width="4" height="24" rx="4" fill="#0072B2" stroke="none" stroke-width="0"/>
<text x="282.0" y="525.0" font-size="10" fill="#17212B" font-weight="650" text-anchor="middle" dominant-baseline="middle" class="mono">A3</text>
<rect x="313" y="513" width="48" height="24" rx="5" fill="#EEF7FC" stroke="#D9E0E6" stroke-width="1"/>
<rect x="313" y="513" width="4" height="24" rx="4" fill="#0072B2" stroke="none" stroke-width="0"/>
<text x="337.0" y="525.0" font-size="10" fill="#17212B" font-weight="650" text-anchor="middle" dominant-baseline="middle" class="mono">A4</text>
<rect x="368" y="513" width="48" height="24" rx="5" fill="#EEF7FC" stroke="#D9E0E6" stroke-width="1"/>
<rect x="368" y="513" width="4" height="24" rx="4" fill="#0072B2" stroke="none" stroke-width="0"/>
<text x="392.0" y="525.0" font-size="10" fill="#17212B" font-weight="650" text-anchor="middle" dominant-baseline="middle" class="mono">A5</text>
<rect x="423" y="513" width="48" height="24" rx="5" fill="#EEF7FC" stroke="#D9E0E6" stroke-width="1"/>
<rect x="423" y="513" width="4" height="24" rx="4" fill="#0072B2" stroke="none" stroke-width="0"/>
<text x="447.0" y="525.0" font-size="10" fill="#17212B" font-weight="650" text-anchor="middle" dominant-baseline="middle" class="mono">A6</text>
<rect x="478" y="513" width="48" height="24" rx="5" fill="#EEF7FC" stroke="#D9E0E6" stroke-width="1"/>
<rect x="478" y="513" width="4" height="24" rx="4" fill="#0072B2" stroke="none" stroke-width="0"/>
<text x="502.0" y="525.0" font-size="10" fill="#17212B" font-weight="650" text-anchor="middle" dominant-baseline="middle" class="mono">A7</text>
<rect x="533" y="513" width="48" height="24" rx="5" fill="#EEF7FC" stroke="#D9E0E6" stroke-width="1"/>
<rect x="533" y="513" width="4" height="24" rx="4" fill="#0072B2" stroke="none" stroke-width="0"/>
<text x="557.0" y="525.0" font-size="10" fill="#17212B" font-weight="650" text-anchor="middle" dominant-baseline="middle" class="mono">A8</text>
<text x="72" y="572" font-size="8.2" fill="#66727F" font-weight="650" text-anchor="start" dominant-baseline="middle" letter-spacing="0.6">LAYER</text>
<rect x="148" y="559" width="48" height="24" rx="5" fill="#EEF7FC" stroke="#6F42C1" stroke-width="2"/>
<rect x="148" y="559" width="4" height="24" rx="4" fill="#0072B2" stroke="none" stroke-width="0"/>
<text x="172.0" y="571.0" font-size="10" fill="#17212B" font-weight="650" text-anchor="middle" dominant-baseline="middle" class="mono">A3</text>
<rect x="203" y="559" width="48" height="24" rx="5" fill="#EEF7FC" stroke="#D9E0E6" stroke-width="1"/>
<rect x="203" y="559" width="4" height="24" rx="4" fill="#0072B2" stroke="none" stroke-width="0"/>
<text x="227.0" y="571.0" font-size="10" fill="#17212B" font-weight="650" text-anchor="middle" dominant-baseline="middle" class="mono">A5</text>
<rect x="258" y="559" width="48" height="24" rx="5" fill="#EEF7FC" stroke="#D9E0E6" stroke-width="1"/>
<rect x="258" y="559" width="4" height="24" rx="4" fill="#0072B2" stroke="none" stroke-width="0"/>
<text x="282.0" y="571.0" font-size="10" fill="#17212B" font-weight="650" text-anchor="middle" dominant-baseline="middle" class="mono">A7</text>
<rect x="313" y="559" width="48" height="24" rx="5" fill="#EEF7FC" stroke="#D9E0E6" stroke-width="1"/>
<rect x="313" y="559" width="4" height="24" rx="4" fill="#0072B2" stroke="none" stroke-width="0"/>
<text x="337.0" y="571.0" font-size="10" fill="#17212B" font-weight="650" text-anchor="middle" dominant-baseline="middle" class="mono">A8</text>
<rect x="368" y="559" width="48" height="24" rx="5" fill="#EEF7FC" stroke="#D9E0E6" stroke-width="1"/>
<rect x="368" y="559" width="4" height="24" rx="4" fill="#0072B2" stroke="none" stroke-width="0"/>
<text x="392.0" y="571.0" font-size="10" fill="#17212B" font-weight="650" text-anchor="middle" dominant-baseline="middle" class="mono">A6</text>
<rect x="423" y="559" width="48" height="24" rx="5" fill="#EEF7FC" stroke="#D9E0E6" stroke-width="1"/>
<rect x="423" y="559" width="4" height="24" rx="4" fill="#0072B2" stroke="none" stroke-width="0"/>
<text x="447.0" y="571.0" font-size="10" fill="#17212B" font-weight="650" text-anchor="middle" dominant-baseline="middle" class="mono">A4</text>
<rect x="478" y="559" width="48" height="24" rx="5" fill="#EEF7FC" stroke="#D9E0E6" stroke-width="1"/>
<rect x="478" y="559" width="4" height="24" rx="4" fill="#0072B2" stroke="none" stroke-width="0"/>
<text x="502.0" y="571.0" font-size="10" fill="#17212B" font-weight="650" text-anchor="middle" dominant-baseline="middle" class="mono">A1</text>
<rect x="533" y="559" width="48" height="24" rx="5" fill="#EEF7FC" stroke="#6F42C1" stroke-width="2"/>
<rect x="533" y="559" width="4" height="24" rx="4" fill="#0072B2" stroke="none" stroke-width="0"/>
<text x="557.0" y="571.0" font-size="10" fill="#17212B" font-weight="650" text-anchor="middle" dominant-baseline="middle" class="mono">A2</text>
<text x="72" y="626" font-size="11" fill="#17212B" font-weight="650" text-anchor="start" dominant-baseline="middle">Lower B row · R⁺ · p=3</text>
<text x="72" y="650" font-size="8.2" fill="#66727F" font-weight="650" text-anchor="start" dominant-baseline="middle" letter-spacing="0.6">PHYSICAL</text>
<rect x="148" y="637" width="48" height="24" rx="5" fill="#FFF4ED" stroke="#D9E0E6" stroke-width="1"/>
<rect x="148" y="637" width="4" height="24" rx="4" fill="#D55E00" stroke="none" stroke-width="0"/>
<text x="172.0" y="649.0" font-size="10" fill="#17212B" font-weight="650" text-anchor="middle" dominant-baseline="middle" class="mono">B1</text>
<rect x="203" y="637" width="48" height="24" rx="5" fill="#FFF4ED" stroke="#D9E0E6" stroke-width="1"/>
<rect x="203" y="637" width="4" height="24" rx="4" fill="#D55E00" stroke="none" stroke-width="0"/>
<text x="227.0" y="649.0" font-size="10" fill="#17212B" font-weight="650" text-anchor="middle" dominant-baseline="middle" class="mono">B2</text>
<rect x="258" y="637" width="48" height="24" rx="5" fill="#FFF4ED" stroke="#D9E0E6" stroke-width="1"/>
<rect x="258" y="637" width="4" height="24" rx="4" fill="#D55E00" stroke="none" stroke-width="0"/>
<text x="282.0" y="649.0" font-size="10" fill="#17212B" font-weight="650" text-anchor="middle" dominant-baseline="middle" class="mono">B3</text>
<line x1="309" y1="634" x2="309" y2="666" stroke="#6F42C1" stroke-width="3"/>
<rect x="313" y="637" width="48" height="24" rx="5" fill="#FFF4ED" stroke="#D9E0E6" stroke-width="1"/>
<rect x="313" y="637" width="4" height="24" rx="4" fill="#D55E00" stroke="none" stroke-width="0"/>
<text x="337.0" y="649.0" font-size="10" fill="#17212B" font-weight="650" text-anchor="middle" dominant-baseline="middle" class="mono">B4</text>
<rect x="368" y="637" width="48" height="24" rx="5" fill="#FFF4ED" stroke="#D9E0E6" stroke-width="1"/>
<rect x="368" y="637" width="4" height="24" rx="4" fill="#D55E00" stroke="none" stroke-width="0"/>
<text x="392.0" y="649.0" font-size="10" fill="#17212B" font-weight="650" text-anchor="middle" dominant-baseline="middle" class="mono">B5</text>
<rect x="423" y="637" width="48" height="24" rx="5" fill="#FFF4ED" stroke="#D9E0E6" stroke-width="1"/>
<rect x="423" y="637" width="4" height="24" rx="4" fill="#D55E00" stroke="none" stroke-width="0"/>
<text x="447.0" y="649.0" font-size="10" fill="#17212B" font-weight="650" text-anchor="middle" dominant-baseline="middle" class="mono">B6</text>
<rect x="478" y="637" width="48" height="24" rx="5" fill="#FFF4ED" stroke="#D9E0E6" stroke-width="1"/>
<rect x="478" y="637" width="4" height="24" rx="4" fill="#D55E00" stroke="none" stroke-width="0"/>
<text x="502.0" y="649.0" font-size="10" fill="#17212B" font-weight="650" text-anchor="middle" dominant-baseline="middle" class="mono">B7</text>
<rect x="533" y="637" width="48" height="24" rx="5" fill="#FFF4ED" stroke="#D9E0E6" stroke-width="1"/>
<rect x="533" y="637" width="4" height="24" rx="4" fill="#D55E00" stroke="none" stroke-width="0"/>
<text x="557.0" y="649.0" font-size="10" fill="#17212B" font-weight="650" text-anchor="middle" dominant-baseline="middle" class="mono">B8</text>
<text x="72" y="696" font-size="8.2" fill="#66727F" font-weight="650" text-anchor="start" dominant-baseline="middle" letter-spacing="0.6">LAYER</text>
<rect x="148" y="683" width="48" height="24" rx="5" fill="#FFF4ED" stroke="#6F42C1" stroke-width="2"/>
<rect x="148" y="683" width="4" height="24" rx="4" fill="#D55E00" stroke="none" stroke-width="0"/>
<text x="172.0" y="695.0" font-size="10" fill="#17212B" font-weight="650" text-anchor="middle" dominant-baseline="middle" class="mono">B3</text>
<rect x="203" y="683" width="48" height="24" rx="5" fill="#FFF4ED" stroke="#D9E0E6" stroke-width="1"/>
<rect x="203" y="683" width="4" height="24" rx="4" fill="#D55E00" stroke="none" stroke-width="0"/>
<text x="227.0" y="695.0" font-size="10" fill="#17212B" font-weight="650" text-anchor="middle" dominant-baseline="middle" class="mono">B1</text>
<rect x="258" y="683" width="48" height="24" rx="5" fill="#FFF4ED" stroke="#D9E0E6" stroke-width="1"/>
<rect x="258" y="683" width="4" height="24" rx="4" fill="#D55E00" stroke="none" stroke-width="0"/>
<text x="282.0" y="695.0" font-size="10" fill="#17212B" font-weight="650" text-anchor="middle" dominant-baseline="middle" class="mono">B2</text>
<rect x="313" y="683" width="48" height="24" rx="5" fill="#FFF4ED" stroke="#D9E0E6" stroke-width="1"/>
<rect x="313" y="683" width="4" height="24" rx="4" fill="#D55E00" stroke="none" stroke-width="0"/>
<text x="337.0" y="695.0" font-size="10" fill="#17212B" font-weight="650" text-anchor="middle" dominant-baseline="middle" class="mono">B5</text>
<rect x="368" y="683" width="48" height="24" rx="5" fill="#FFF4ED" stroke="#D9E0E6" stroke-width="1"/>
<rect x="368" y="683" width="4" height="24" rx="4" fill="#D55E00" stroke="none" stroke-width="0"/>
<text x="392.0" y="695.0" font-size="10" fill="#17212B" font-weight="650" text-anchor="middle" dominant-baseline="middle" class="mono">B7</text>
<rect x="423" y="683" width="48" height="24" rx="5" fill="#FFF4ED" stroke="#D9E0E6" stroke-width="1"/>
<rect x="423" y="683" width="4" height="24" rx="4" fill="#D55E00" stroke="none" stroke-width="0"/>
<text x="447.0" y="695.0" font-size="10" fill="#17212B" font-weight="650" text-anchor="middle" dominant-baseline="middle" class="mono">B8</text>
<rect x="478" y="683" width="48" height="24" rx="5" fill="#FFF4ED" stroke="#D9E0E6" stroke-width="1"/>
<rect x="478" y="683" width="4" height="24" rx="4" fill="#D55E00" stroke="none" stroke-width="0"/>
<text x="502.0" y="695.0" font-size="10" fill="#17212B" font-weight="650" text-anchor="middle" dominant-baseline="middle" class="mono">B6</text>
<rect x="533" y="683" width="48" height="24" rx="5" fill="#FFF4ED" stroke="#6F42C1" stroke-width="2"/>
<rect x="533" y="683" width="4" height="24" rx="4" fill="#D55E00" stroke="none" stroke-width="0"/>
<text x="557.0" y="695.0" font-size="10" fill="#17212B" font-weight="650" text-anchor="middle" dominant-baseline="middle" class="mono">B4</text>
<rect x="960" y="112" width="500" height="350" rx="8" fill="#FFFFFF" stroke="#D9E0E6" stroke-width="1"/>
<rect x="976" y="126" width="26" height="26" rx="5" fill="#fff" stroke="#D9E0E6" stroke-width="1"/>
<text x="989" y="139" font-size="11" fill="#66727F" font-weight="650" text-anchor="middle" dominant-baseline="middle">C</text>
<text x="1014" y="139" font-size="12" fill="#17212B" font-weight="650" text-anchor="start" dominant-baseline="middle" letter-spacing="0.8">GLOBAL LAYER ORDER</text>
<text x="1442" y="139" font-size="11" fill="#66727F" font-weight="450" text-anchor="end" dominant-baseline="middle">literal labelled state</text>
<line x1="976" y1="160" x2="1444" y2="160" stroke="#D9E0E6" stroke-width="1"/>
<text x="992" y="174" font-size="12" fill="#B23A48" font-weight="650" text-anchor="start" dominant-baseline="middle">No exact state exported</text>
<text x="992" y="200" font-size="10" fill="#66727F" font-weight="450" text-anchor="start" dominant-baseline="middle">The prepared theorem record is incompatible.</text>
<text x="992" y="222" font-size="10" fill="#66727F" font-weight="450" text-anchor="start" dominant-baseline="middle">Inspect the directed-cycle witness instead.</text>
<rect x="960" y="482" width="500" height="420" rx="8" fill="#FFFFFF" stroke="#D9E0E6" stroke-width="1"/>
<rect x="976" y="496" width="26" height="26" rx="5" fill="#fff" stroke="#D9E0E6" stroke-width="1"/>
<text x="989" y="509" font-size="11" fill="#66727F" font-weight="650" text-anchor="middle" dominant-baseline="middle">D</text>
<text x="1014" y="509" font-size="12" fill="#17212B" font-weight="650" text-anchor="start" dominant-baseline="middle" letter-spacing="0.8">DIRECTED-CYCLE WITNESS</text>
<text x="1442" y="509" font-size="11" fill="#66727F" font-weight="450" text-anchor="end" dominant-baseline="middle">exported theorem record</text>
<line x1="976" y1="530" x2="1444" y2="530" stroke="#D9E0E6" stroke-width="1"/>
<line x1="1100" y1="607" x2="1294" y2="607" stroke="#6F42C1" stroke-width="2.6"/>
<path d="M 1294 607 L 1285 602 L 1285 612 Z" fill="#6F42C1" stroke="#6F42C1" stroke-width="1"/>
<line x1="1330" y1="627" x2="1330" y2="727" stroke="#6F42C1" stroke-width="2.6"/>
<path d="M 1330 727 L 1325 718 L 1335 718 Z" fill="#6F42C1" stroke="#6F42C1" stroke-width="1"/>
<line x1="1294" y1="747" x2="1100" y2="747" stroke="#6F42C1" stroke-width="2.6"/>
<path d="M 1100 747 L 1109 742 L 1109 752 Z" fill="#6F42C1" stroke="#6F42C1" stroke-width="1"/>
<line x1="1064" y1="727" x2="1064" y2="627" stroke="#B23A48" stroke-width="3.2"/>
<path d="M 1064 627 L 1059 636 L 1069 636 Z" fill="#B23A48" stroke="#B23A48" stroke-width="1"/>
<rect x="1028" y="587" width="72" height="40" rx="6" fill="#EEF7FC" stroke="#0072B2" stroke-width="1.3"/>
<text x="1064" y="607" font-size="12" fill="#17212B" font-weight="700" text-anchor="middle" dominant-baseline="middle" class="mono">A4</text>
<rect x="1294" y="587" width="72" height="40" rx="6" fill="#EEF7FC" stroke="#0072B2" stroke-width="1.3"/>
<text x="1330" y="607" font-size="12" fill="#17212B" font-weight="700" text-anchor="middle" dominant-baseline="middle" class="mono">A1</text>
<rect x="1294" y="727" width="72" height="40" rx="6" fill="#FFF4ED" stroke="#D55E00" stroke-width="1.3"/>
<text x="1330" y="747" font-size="12" fill="#17212B" font-weight="700" text-anchor="middle" dominant-baseline="middle" class="mono">B1</text>
<rect x="1028" y="727" width="72" height="40" rx="6" fill="#FFF4ED" stroke="#D55E00" stroke-width="1.3"/>
<text x="1064" y="747" font-size="12" fill="#17212B" font-weight="700" text-anchor="middle" dominant-baseline="middle" class="mono">B4</text>
<text x="992" y="800" font-size="9.3" fill="#17212B" font-weight="650" text-anchor="start" dominant-baseline="middle" class="mono">1. A4 ≺ A1</text>
<text x="1142" y="800" font-size="8.7" fill="#66727F" font-weight="450" text-anchor="start" dominant-baseline="middle">upper-row order</text>
<text x="992" y="824" font-size="9.3" fill="#17212B" font-weight="650" text-anchor="start" dominant-baseline="middle" class="mono">2. A1 ≺ B1</text>
<text x="1142" y="824" font-size="8.7" fill="#66727F" font-weight="450" text-anchor="start" dominant-baseline="middle">odd horizontal crease</text>
<text x="992" y="848" font-size="9.3" fill="#17212B" font-weight="650" text-anchor="start" dominant-baseline="middle" class="mono">3. B1 ≺ B4</text>
<text x="1142" y="848" font-size="8.7" fill="#66727F" font-weight="450" text-anchor="start" dominant-baseline="middle">lower-row order</text>
<text x="992" y="872" font-size="9.3" fill="#B23A48" font-weight="650" text-anchor="start" dominant-baseline="middle" class="mono">4. B4 ≺ A4</text>
<text x="1142" y="872" font-size="8.7" fill="#66727F" font-weight="450" text-anchor="start" dominant-baseline="middle">even horizontal crease</text>
<text x="1322" y="872" font-size="8.2" fill="#B23A48" font-weight="700" text-anchor="start" dominant-baseline="middle">closes cycle</text>
<rect x="48" y="816" width="860" height="58" rx="6" fill="#FCEFF1" stroke="#B23A48" stroke-width="1" stroke-dasharray="4 3"/>
<text x="68" y="838" font-size="11" fill="#B23A48" font-weight="650" text-anchor="start" dominant-baseline="middle">interior off-diagonal obstruction</text>
<text x="68" y="858" font-size="9.5" fill="#66727F" font-weight="450" text-anchor="start" dominant-baseline="middle">The exported theorem witness is a directed four-cycle, so no strict total layer order can satisfy all four inequalities.</text>
</svg>